<svg width="422" height="40" fill="none" xmlns="http://www.w3.org/2000/svg"><path d="M124.578 6.146h21.153V38.76h-21.153V6.146ZM37.27 19.936c0 4.66-2.57 6.852-8.059 6.852-5.49 0-8.061-2.19-8.061-6.851V6.146H0V20.73c0 13.65 7.639 18.495 29.211 18.495s29.212-4.853 29.212-18.495V6.146H37.27v13.79Zm110.696-1.675h17.698V38.76h21.153V18.26h17.699V6.146h-56.55v12.115Zm-46.961 4.799L84.465 6.146h-23.33V38.76h20.87V21.846L98.53 38.76h23.342V6.146h-20.867V23.06Zm267.374-10.014C368.379 4.148 360.506 0 343.921 0c-17.89 0-25.438 4.753-25.438 16.12h16.631c0-3.914 2.749-5.312 8.202-5.312 5.309 0 6.988.933 6.988 2.377 0 1.91-.606 1.91-13.988 5.03-14.813 3.494-19.411 10.391-19.411 17.054v3.494h50.269V28.175h-29.402c1.773-1.678 6.802-2.144 17.938-4.282 7.405-1.393 12.669-3.956 12.669-10.847ZM206.762 38.76h48.126V29.03h-27.901v-2.749h19.848v-7.65h-19.848v-2.749h27.907V6.146h-48.132V38.76ZM422 21.43V32.33h-7.548v6.429h-17.187V32.33h-28.372V21.324L389.252 1.29h25.203v20.128l7.545.012Zm-24.738-10.717L386.414 21.43h10.848V10.713Zm-79.664 11.753c0 10.947-6.896 16.305-21.107 16.305h-38.899V6.146h38.899c14.211 0 21.107 5.358 21.107 16.32Zm-20.639 0c0-3.683-2.052-5.407-6.337-5.407H278.23v10.81h12.392c4.285-.01 6.337-1.735 6.337-5.403Z" fill="#3D3D46"/></svg>
